<svg width="31" height="31" viewBox="0 0 31 31" fill="none" xmlns="http://www.w3.org/2000/svg">
<path fill-rule="evenodd" clip-rule="evenodd" d="M3.44444 31H27.5555C29.4579 31 31 29.4579 31 27.5556V3.44444C31 1.54213 29.4579 0 27.5555 0H3.44444C1.54213 0 0 1.54213 0 3.44444V27.5556C0 29.4579 1.54213 31 3.44444 31Z" fill="#FF4500"/>
<path fill-rule="evenodd" clip-rule="evenodd" d="M26.6943 26.6944H22.0941V18.8592C22.0941 16.711 21.2778 15.5105 19.5775 15.5105C17.7278 15.5105 16.7614 16.7598 16.7614 18.8592V26.6944H12.3281V11.7685H16.7614V13.779C16.7614 13.779 18.0944 11.3125 21.2618 11.3125C24.4277 11.3125 26.6943 13.2458 26.6943 17.2443V26.6944ZM7.03916 9.81407C5.52908 9.81407 4.30542 8.58081 4.30542 7.05981C4.30542 5.53881 5.52908 4.30554 7.03916 4.30554C8.54925 4.30554 9.77218 5.53881 9.77218 7.05981C9.77218 8.58081 8.54925 9.81407 7.03916 9.81407ZM4.74999 26.6944H9.3728V11.7685H4.74999V26.6944Z" fill="white"/>
</svg>
