<svg width="31" height="31" viewBox="0 0 31 31" fill="none" xmlns="http://www.w3.org/2000/svg">
<path fill-rule="evenodd" clip-rule="evenodd" d="M3.44444 31H27.5556C29.4579 31 31 29.4579 31 27.5556V3.44444C31 1.54213 29.4579 0 27.5556 0H3.44444C1.54213 0 0 1.54213 0 3.44444V27.5556C0 29.4579 1.54213 31 3.44444 31Z" fill="#FF4500"/>
<path fill-rule="evenodd" clip-rule="evenodd" d="M23.7178 11.0717C23.9854 17.0353 19.5385 23.6846 11.666 23.6846C9.27172 23.6846 7.04297 22.9823 5.16663 21.7793C7.4157 22.0443 9.66121 21.4208 11.4436 20.0233C9.5886 19.9893 8.02252 18.7634 7.48323 17.079C8.14744 17.206 8.80099 17.1689 9.39766 17.0069C7.35831 16.5966 5.95119 14.7599 5.99689 12.7957C6.56868 13.1131 7.22273 13.304 7.91792 13.3253C6.02939 12.0639 5.49467 9.57061 6.60575 7.66481C8.69638 10.2302 11.8204 11.9182 15.3446 12.0954C14.7266 9.44264 16.7385 6.88889 19.4751 6.88889C20.6948 6.88889 21.7967 7.40329 22.5696 8.22746C23.5355 8.03754 24.4429 7.68462 25.262 7.19865C24.9456 8.18887 24.2733 9.02015 23.3979 9.5442C24.2555 9.44213 25.0726 9.21413 25.8333 8.87694C25.2651 9.72752 24.546 10.474 23.7178 11.0717Z" fill="white"/>
</svg>
